<svg xmlns="http://www.w3.org/2000/svg" viewBox="0 0 27 27"><path d="M1 1h7v7h-7zM9 1h1v3h-1zM11 1h2v1h1v-1h3v2h-1v1h2v1h-1v1h-1v-1h-1v-1h-1v-1h-1v3h-2v-1h1v-3h-1zM19 1h7v7h-7zM2 2v5h5v-5zM20 2v5h5v-5zM3 3h3v3h-3zM21 3h3v3h-3zM9 5h1v1h-1zM14 5h1v1h1v4h1v1h2v1h-2v1h-1v1h-2v-1h1v-3h-1v3h-1v-2h-1v1h-2v-2h3v-1h2v-2h-1zM9 7h1v1h-1zM11 7h1v1h-1zM13 7h1v1h-1zM17 7h1v2h1v1h-2zM10 8h1v1h-1zM12 8h1v1h-1zM1 9h1v1h2v-1h6v1h-1v2h1v2h-1v-1h-1v-1h-1v-1h1v-1h-2v2h-2v1h-1v1h1v-1h1v1h1v1h-1v1h-1v2h-1v-2h-1v2h-1zM21 9h1v1h1v-1h3v1h-1v1h-2v1h2v-1h1v3h-1v-1h-3v-2h-2v-1h1zM6 12h1v1h1v1h-2zM19 12h1v1h1v1h-2zM11 13h2v1h-2zM17 13h1v2h-1v1h1v1h2v-1h1v1h1v5h-2v1h-1v1h-2v-1h1v-1h-2v-2h1v-2h-1v-1h-2v1h-1v1h-1v-1h-1v-1h2v-1h2v-1h1v-1h1zM10 14h1v1h-1zM13 14h1v1h-1zM21 14h1v1h2v-1h1v1h1v2h-1v-1h-1v1h1v2h-2v-2h-1v-1h-1zM6 15h3v1h-3zM11 15h1v1h-1zM18 15h1v1h-1zM5 16h1v2h-1zM9 16h2v1h-2zM7 17h1v1h-1zM9 18h1v1h2v1h-1v1h1v-1h1v2h-3v1h-1zM18 18v3h3v-3zM1 19h7v7h-7zM13 19h3v1h-1v6h-3v-2h-1v-1h2v1h1v-1h-1v-1h1v-2h-1zM19 19h1v1h-1zM25 19h1v7h-1v-1h-2v-1h-1v1h-3v-1h2v-1h3v-1h1zM2 20v5h5v-5zM3 21h3v3h-3zM10 24h1v2h-2v-1h1zM16 25h2v1h-2zM22 25h1v1h-1z"/></svg>